<?xml version="1.0" encoding="UTF-8" standalone="no"?>
<!-- Created with Inkscape (http://www.inkscape.org/) -->

<svg
   width="55.165558mm"
   height="54.157471mm"
   viewBox="0 0 55.165558 54.157471"
   version="1.1"
   id="svg2600"
   inkscape:version="1.2 (dc2aedaf03, 2022-05-15)"
   sodipodi:docname="qualitytool.svg"
   xmlns:inkscape="http://www.inkscape.org/namespaces/inkscape"
   xmlns:sodipodi="http://sodipodi.sourceforge.net/DTD/sodipodi-0.dtd"
   xmlns="http://www.w3.org/2000/svg"
   xmlns:svg="http://www.w3.org/2000/svg">
  <sodipodi:namedview
     id="namedview2602"
     pagecolor="#ffffff"
     bordercolor="#666666"
     borderopacity="1.0"
     inkscape:showpageshadow="2"
     inkscape:pageopacity="0.0"
     inkscape:pagecheckerboard="0"
     inkscape:deskcolor="#d1d1d1"
     inkscape:document-units="mm"
     showgrid="false"
     inkscape:zoom="0.2102413"
     inkscape:cx="-473.26571"
     inkscape:cy="-535.09943"
     inkscape:window-width="1920"
     inkscape:window-height="997"
     inkscape:window-x="-9"
     inkscape:window-y="-9"
     inkscape:window-maximized="1"
     inkscape:current-layer="layer1" />
  <defs
     id="defs2597" />
  <g
     inkscape:label="Layer 1"
     inkscape:groupmode="layer"
     id="layer1"
     transform="translate(-230.40449,-291.31534)">
    <ellipse
       style="opacity:0.996344;fill:#ad5474;fill-opacity:1;stroke:#ad5474;stroke-width:2.39264;stroke-linecap:round;stroke-miterlimit:4;stroke-dasharray:none;stroke-opacity:1"
       id="ellipse975"
       cx="257.98727"
       cy="318.39407"
       rx="26.386459"
       ry="25.882416"
       inkscape:export-filename="laatulista_painike.png"
       inkscape:export-xdpi="330"
       inkscape:export-ydpi="330" />
    <path
       id="path9166"
       style="opacity:0.996344;fill:#f2d1dd;fill-opacity:1;stroke:none;stroke-width:0.528329;stroke-linecap:round;stroke-miterlimit:4;stroke-dasharray:none;stroke-opacity:1"
       d="m 256.70307,296.95177 a 14.716548,5.087245 0 0 0 -14.68928,4.8051 h -0.026 v 0.2678 a 14.716548,5.087245 0 0 0 -8e-4,0.0141 14.716548,5.087245 0 0 0 8e-4,0.0141 v 26.93395 h 0.009 a 14.704034,3.9610176 0 0 0 -0.0104,0.0879 14.704034,3.9610176 0 0 0 14.70393,3.96105 14.704034,3.9610176 0 0 0 14.70391,-3.96105 14.704034,3.9610176 0 0 0 -0.004,-0.0879 h 0.009 v -26.68149 a 14.716548,5.087245 0 0 0 0.0212,-0.26649 14.716548,5.087245 0 0 0 -0.0212,-0.22181 v -0.06 h -0.008 a 14.716548,5.087245 0 0 0 -14.68927,-4.8051 z m -0.0499,2.46484 a 10.99681,2.6220625 0 0 1 10.997,2.62205 10.99681,2.6220625 0 0 1 -10.997,2.62205 10.99681,2.6220625 0 0 1 -10.93641,-2.36292 v -0.51826 a 10.99681,2.6220625 0 0 1 10.93641,-2.36292 z m 11.24528,5.9236 v 20.72924 h -0.008 a 11.089871,3.5366638 0 0 1 0,6.8e-4 11.089871,3.5366638 0 0 1 0,6.7e-4 11.089871,3.5366638 0 0 1 0,6.5e-4 11.089871,3.5366638 0 0 1 0,6.7e-4 11.089871,3.5366638 0 0 1 0,6.7e-4 11.089871,3.5366638 0 0 1 0,6.5e-4 11.089871,3.5366638 0 0 1 0,6.8e-4 11.089871,3.5366638 0 0 1 0,6.7e-4 11.089871,3.5366638 0 0 1 0,6.6e-4 11.089871,3.5366638 0 0 1 0,6.7e-4 11.089871,3.5366638 0 0 1 0,6.8e-4 11.089871,3.5366638 0 0 1 0,6.5e-4 11.089871,3.5366638 0 0 1 6.5e-4,0.004 11.089871,3.5366638 0 0 1 0,6.5e-4 11.089871,3.5366638 0 0 1 0,6.7e-4 11.089871,3.5366638 0 0 1 0,6.7e-4 11.089871,3.5366638 0 0 1 0,6.5e-4 11.089871,3.5366638 0 0 1 0,6.7e-4 11.089871,3.5366638 0 0 1 0,6.8e-4 11.089871,3.5366638 0 0 1 0,6.6e-4 11.089871,3.5366638 0 0 1 0,6.5e-4 11.089871,3.5366638 0 0 1 0,6.8e-4 11.089871,3.5366638 0 0 1 0,6.7e-4 11.089871,3.5366638 0 0 1 0,6.7e-4 11.089871,3.5366638 0 0 1 0,6.7e-4 11.089871,3.5366638 0 0 1 0,6.5e-4 11.089871,3.5366638 0 0 1 0,6.6e-4 11.089871,3.5366638 0 0 1 0,6.9e-4 11.089871,3.5366638 0 0 1 0,6.6e-4 11.089871,3.5366638 0 0 1 0,6.5e-4 11.089871,3.5366638 0 0 1 0,6.8e-4 11.089871,3.5366638 0 0 1 6.7e-4,0.003 11.089871,3.5366638 0 0 1 0,6.6e-4 11.089871,3.5366638 0 0 1 0,6.7e-4 11.089871,3.5366638 0 0 1 0,6.6e-4 11.089871,3.5366638 0 0 1 0,6.8e-4 11.089871,3.5366638 0 0 1 0,6.6e-4 11.089871,3.5366638 0 0 1 0,6.7e-4 11.089871,3.5366638 0 0 1 0,6.7e-4 11.089871,3.5366638 0 0 1 0,6.6e-4 11.089871,3.5366638 0 0 1 0,6.6e-4 11.089871,3.5366638 0 0 1 0,6.8e-4 11.089871,3.5366638 0 0 1 0,6.6e-4 11.089871,3.5366638 0 0 1 0,6.6e-4 11.089871,3.5366638 0 0 1 0,6.7e-4 11.089871,3.5366638 0 0 1 0,6.6e-4 11.089871,3.5366638 0 0 1 0,6.7e-4 11.089871,3.5366638 0 0 1 0,6.8e-4 11.089871,3.5366638 0 0 1 0,6.5e-4 11.089871,3.5366638 0 0 1 0,6.7e-4 11.089871,3.5366638 0 0 1 0,6.8e-4 11.089871,3.5366638 0 0 1 0,6.5e-4 11.089871,3.5366638 0 0 1 0,6.7e-4 11.089871,3.5366638 0 0 1 0,6.5e-4 11.089871,3.5366638 0 0 1 0,6.8e-4 11.089871,3.5366638 0 0 1 0,6.6e-4 11.089871,3.5366638 0 0 1 0,6.6e-4 11.089871,3.5366638 0 0 1 6.7e-4,0.003 11.089871,3.5366638 0 0 1 0,6.6e-4 11.089871,3.5366638 0 0 1 0,6.7e-4 11.089871,3.5366638 0 0 1 0,6.8e-4 11.089871,3.5366638 0 0 1 0,6.6e-4 11.089871,3.5366638 0 0 1 0,6.6e-4 11.089871,3.5366638 0 0 1 0,6.6e-4 11.089871,3.5366638 0 0 1 0,6.8e-4 11.089871,3.5366638 0 0 1 0,6.6e-4 11.089871,3.5366638 0 0 1 0,6.6e-4 11.089871,3.5366638 0 0 1 0,6.7e-4 11.089871,3.5366638 0 0 1 0,6.7e-4 11.089871,3.5366638 0 0 1 0,6.6e-4 11.089871,3.5366638 0 0 1 0,6.7e-4 11.089871,3.5366638 0 0 1 0,6.5e-4 11.089871,3.5366638 0 0 1 0,6.8e-4 11.089871,3.5366638 0 0 1 0,6.7e-4 11.089871,3.5366638 0 0 1 0,6.7e-4 11.089871,3.5366638 0 0 1 0,6.6e-4 11.089871,3.5366638 0 0 1 0,6.7e-4 11.089871,3.5366638 0 0 1 0,6.7e-4 11.089871,3.5366638 0 0 1 0,6.5e-4 11.089871,3.5366638 0 0 1 0,6.7e-4 11.089871,3.5366638 0 0 1 0,6.6e-4 11.089871,3.5366638 0 0 1 0,6.7e-4 11.089871,3.5366638 0 0 1 0,6.7e-4 11.089871,3.5366638 0 0 1 0,6.5e-4 11.089871,3.5366638 0 0 1 0,6.8e-4 11.089871,3.5366638 0 0 1 0,6.7e-4 11.089871,3.5366638 0 0 1 0,6.7e-4 11.089871,3.5366638 0 0 1 0,6.7e-4 11.089871,3.5366638 0 0 1 0,6.5e-4 11.089871,3.5366638 0 0 1 0,6.8e-4 11.089871,3.5366638 0 0 1 0,6.7e-4 11.089871,3.5366638 0 0 1 0,6.5e-4 11.089871,3.5366638 0 0 1 0,6.7e-4 11.089871,3.5366638 0 0 1 0,6.7e-4 11.089871,3.5366638 0 0 1 0,6.7e-4 11.089871,3.5366638 0 0 1 0,6.6e-4 11.089871,3.5366638 0 0 1 0,6.7e-4 11.089871,3.5366638 0 0 1 0,6.6e-4 11.089871,3.5366638 0 0 1 0,6.6e-4 11.089871,3.5366638 0 0 1 0,6.8e-4 11.089871,3.5366638 0 0 1 0,6.6e-4 11.089871,3.5366638 0 0 1 0,6.7e-4 11.089871,3.5366638 0 0 1 0,6.7e-4 11.089871,3.5366638 0 0 1 0,6.5e-4 11.089871,3.5366638 0 0 1 0,6.8e-4 11.089871,3.5366638 0 0 1 0,6.7e-4 11.089871,3.5366638 0 0 1 6.5e-4,0.003 11.089871,3.5366638 0 0 1 0,6.7e-4 11.089871,3.5366638 0 0 1 0,6.8e-4 11.089871,3.5366638 0 0 1 0,6.7e-4 11.089871,3.5366638 0 0 1 0,6.5e-4 11.089871,3.5366638 0 0 1 0,6.7e-4 11.089871,3.5366638 0 0 1 0,6.7e-4 11.089871,3.5366638 0 0 1 0,6.7e-4 11.089871,3.5366638 0 0 1 0,6.6e-4 11.089871,3.5366638 0 0 1 0,6.8e-4 11.089871,3.5366638 0 0 1 0,6.5e-4 11.089871,3.5366638 0 0 1 0,6.6e-4 11.089871,3.5366638 0 0 1 0,6.8e-4 11.089871,3.5366638 0 0 1 0,6.5e-4 11.089871,3.5366638 0 0 1 0,6.7e-4 11.089871,3.5366638 0 0 1 0,6.8e-4 11.089871,3.5366638 0 0 1 0,6.5e-4 11.089871,3.5366638 0 0 1 0,6.7e-4 11.089871,3.5366638 0 0 1 0,6.8e-4 11.089871,3.5366638 0 0 1 0,6.6e-4 11.089871,3.5366638 0 0 1 0,6.6e-4 11.089871,3.5366638 0 0 1 0,6.8e-4 11.089871,3.5366638 0 0 1 0,6.6e-4 11.089871,3.5366638 0 0 1 0,6.6e-4 11.089871,3.5366638 0 0 1 0,6.7e-4 11.089871,3.5366638 0 0 1 0,6.5e-4 11.089871,3.5366638 0 0 0 0,6.7e-4 11.089871,3.5366638 0 0 1 -11.09018,3.53672 11.089871,3.5366638 0 0 1 -11.08949,-3.53672 11.089871,3.5366638 0 0 1 0.009,-0.078 h -0.008 v -20.66663 a 14.716548,5.087245 0 0 0 10.98635,1.70405 14.716548,5.087245 0 0 0 11.19535,-1.78598 z"
       inkscape:export-filename="laatulista_painike.png"
       inkscape:export-xdpi="330"
       inkscape:export-ydpi="330" />
    <path
       sodipodi:type="star"
       style="fill:#ffffff;fill-opacity:1;stroke:#ffffff;stroke-width:28.8836;stroke-linecap:round;stroke-linejoin:round;stroke-miterlimit:4;stroke-dasharray:none;stroke-opacity:1"
       id="path5327"
       inkscape:flatsided="true"
       sodipodi:sides="3"
       sodipodi:cx="-233.11072"
       sodipodi:cy="551.07019"
       sodipodi:r1="99.592628"
       sodipodi:r2="49.79631"
       sodipodi:arg1="1.0549872"
       sodipodi:arg2="2.1021848"
       inkscape:rounded="0"
       inkscape:randomized="0"
       d="m -183.98776,637.70521 -148.71256,-87.4108 150.05625,-85.08346 z"
       transform="matrix(0.12710738,-0.08555482,0.07492323,0.14514391,251.48913,225.29289)"
       inkscape:transform-center-x="-0.0090943483"
       inkscape:transform-center-y="-4.1859385"
       inkscape:export-filename="laatulista_painike.png"
       inkscape:export-xdpi="330"
       inkscape:export-ydpi="330" />
    <text
       xml:space="preserve"
       style="font-style:normal;font-variant:normal;font-weight:600;font-stretch:normal;font-size:25.3803px;line-height:1.25;font-family:'Bookman Old Style';-inkscape-font-specification:'Bookman Old Style Semi-Bold';fill:#ad5474;fill-opacity:1;stroke:none;stroke-width:0.297423"
       x="246.09337"
       y="347.65137"
       id="text17511"
       transform="scale(1.0498265,0.95253834)"
       inkscape:export-filename="laatulista_painike.png"
       inkscape:export-xdpi="330"
       inkscape:export-ydpi="330"><tspan
         sodipodi:role="line"
         id="tspan17509"
         style="font-style:normal;font-variant:normal;font-weight:600;font-stretch:normal;font-size:25.3803px;font-family:'Bookman Old Style';-inkscape-font-specification:'Bookman Old Style Semi-Bold';fill:#ad5474;fill-opacity:1;stroke-width:0.297423"
         x="246.09337"
         y="347.65137">!</tspan></text>
  </g>
</svg>
